<?xml version="1.0" encoding="utf-8"?>
<!-- Generator: Adobe Illustrator 15.1.0, SVG Export Plug-In . SVG Version: 6.00 Build 0)  -->
<!DOCTYPE svg PUBLIC "-//W3C//DTD SVG 1.1//EN" "http://www.w3.org/Graphics/SVG/1.1/DTD/svg11.dtd">
<svg version="1.1" id="Layer_1" xmlns="http://www.w3.org/2000/svg" xmlns:xlink="http://www.w3.org/1999/xlink" x="0px" y="0px"
	 width="360px" height="260px" viewBox="0 0 360 260" enable-background="new 0 0 360 260" xml:space="preserve">
<path fill="#FFFFFF" d="M143.246,92.479c0,6.291-2.167,11.603-6.5,15.94c-4.337,4.334-9.649,6.57-15.941,6.711
	c-6.293,0.142-11.605-2.096-15.941-6.711c-4.333-4.615-6.5-9.927-6.5-15.94c0-6.014,2.167-11.257,6.5-15.73
	c4.336-4.475,9.648-6.712,15.941-6.712c6.292,0,11.604,2.237,15.941,6.712C141.079,81.222,143.246,86.465,143.246,92.479z
	 M263.217,137.572v52.435H98.363v-22.442l37.332-37.542l18.876,18.667l59.776-59.776L263.217,137.572z M274.333,55.146H87.038
	c-0.979,0-1.818,0.349-2.519,1.046c-0.697,0.701-1.117,1.609-1.258,2.727v142.206c0,1.116,0.419,2.026,1.258,2.726
	c0.839,0.698,1.68,1.047,2.519,1.047h187.295c0.979,0,1.888-0.349,2.727-1.047c0.838-0.699,1.19-1.609,1.05-2.726V58.919
	c0-0.976-0.349-1.885-1.05-2.727C276.361,55.354,275.453,55.005,274.333,55.146z M293,58.919v142.206
	c0,5.172-1.817,9.578-5.454,13.214c-3.635,3.633-8.038,5.52-13.213,5.661H87.038c-5.034,0-9.438-1.888-13.214-5.661
	c-3.776-3.777-5.594-8.18-5.454-13.214V58.919c0-5.171,1.817-9.578,5.454-13.214c3.636-3.632,8.039-5.521,13.214-5.661h187.295
	c5.175,0,9.578,1.888,13.213,5.661C291.183,49.481,293,53.885,293,58.919z"/>
</svg>
