<?xml version="1.0" encoding="utf-8"?>
<!DOCTYPE svg PUBLIC "-//W3C//DTD SVG 1.1//EN" "http://www.w3.org/Graphics/SVG/1.1/DTD/svg11.dtd">
<svg version="1.1" id="Layer_1" xmlns="http://www.w3.org/2000/svg" xmlns:xlink="http://www.w3.org/1999/xlink" x="0px" y="0px"
	 width="360px" height="260px" viewBox="0 0 360 260" enable-background="new 0 0 360 260" xml:space="preserve">
<path fill="#FFFFFF" d="M253.468,125.021v87.146c0,5.222-2.61,7.833-7.833,7.833H118.832c-5.221,0-7.832-2.611-7.832-7.833v-87.146
	c0-1.628,0.246-3.018,0.736-4.161c0.488-1.143,1.061-1.957,1.711-2.446c0.652-0.489,1.632-0.896,2.938-1.226
	c1.304-0.324,2.365-0.488,3.183-0.488c0.814,0,2.121,0,3.914,0c1.797,0,2.939,0.082,3.43,0.246V85.857h0.242
	c1.473-14.198,7.508-25.706,18.116-34.517c10.608-8.812,23.091-13.137,37.453-12.972c14.362,0.161,26.681,5.222,36.964,15.176
	c10.278,9.955,16.076,22.359,17.379,37.207h0.247l0.489,26.194c0.65,0,1.875-0.082,3.672-0.246c1.793-0.165,3.018-0.165,3.672,0
	c0.649,0.164,1.711,0.328,3.182,0.488c1.468,0.166,2.447,0.572,2.937,1.226s0.978,1.468,1.468,2.446
	C253.222,121.84,253.468,123.229,253.468,125.021z M214.059,85.368c0-8.326-3.022-14.362-9.059-18.116
	c-6.04-3.754-13.465-5.632-22.276-5.632c-8.651,0-16.155,2.042-22.521,6.122c-6.364,4.079-9.547,10.361-9.547,18.848v30.355h63.402
	V85.368z"/>
</svg>
